<mxfile host="app.diagrams.net" modified="2024-04-09T14:55:26.329Z" agent="Mozilla/5.0 (Macintosh; Intel Mac OS X 10_15_7) AppleWebKit/537.36 (KHTML, like Gecko) Chrome/114.0.0.0 Safari/537.36" etag="1HjQ_V49biSxNBkho96F" version="24.2.3" type="github">
  <diagram name="Page-1" id="lgMhn1L4xMq7JEpC2YKC">
    <mxGraphModel dx="1120" dy="355" grid="1" gridSize="10" guides="1" tooltips="1" connect="1" arrows="1" fold="1" page="1" pageScale="1" pageWidth="850" pageHeight="1100" math="0" shadow="0">
      <root>
        <mxCell id="0" />
        <mxCell id="1" parent="0" />
        <mxCell id="XmR2WIq8wX1BM2f5QS7f-1" value="Account" style="swimlane;whiteSpace=wrap;html=1;" parent="1" vertex="1">
          <mxGeometry x="320" y="140" width="200" height="300" as="geometry" />
        </mxCell>
        <mxCell id="XmR2WIq8wX1BM2f5QS7f-2" value="id: Int 0&lt;br&gt;balance: double 0&lt;br&gt;annualInterestRate: double 0&lt;br&gt;dateCreated: Date" style="rounded=0;whiteSpace=wrap;html=1;align=center;" parent="XmR2WIq8wX1BM2f5QS7f-1" vertex="1">
          <mxGeometry y="30" width="200" height="70" as="geometry" />
        </mxCell>
        <mxCell id="XmR2WIq8wX1BM2f5QS7f-3" value="Account()&lt;br&gt;Account(id: double, balance: double)&lt;br&gt;getId(): double&lt;br&gt;getBalance(): double&lt;br&gt;getAnnualIntrestRate(): double&lt;br&gt;dateCreated(); double&lt;br&gt;getMonthlyIntrestRate(): double&lt;br&gt;getMonthlyIntrest(): double&lt;br&gt;withdrawl(amount: double)&lt;br&gt;deposit(amount: double)&lt;div&gt;&lt;br&gt;&lt;/div&gt;" style="rounded=0;whiteSpace=wrap;html=1;" parent="XmR2WIq8wX1BM2f5QS7f-1" vertex="1">
          <mxGeometry y="110" width="200" height="180" as="geometry" />
        </mxCell>
        <mxCell id="I8f-Y6jS2_0YOeFHw668-8" style="edgeStyle=orthogonalEdgeStyle;rounded=0;orthogonalLoop=1;jettySize=auto;html=1;entryX=0.5;entryY=1;entryDx=0;entryDy=0;" edge="1" parent="1" source="I8f-Y6jS2_0YOeFHw668-1" target="XmR2WIq8wX1BM2f5QS7f-1">
          <mxGeometry relative="1" as="geometry" />
        </mxCell>
        <mxCell id="I8f-Y6jS2_0YOeFHw668-1" value="Checking Account" style="swimlane;whiteSpace=wrap;html=1;" vertex="1" parent="1">
          <mxGeometry x="170" y="530" width="200" height="210" as="geometry" />
        </mxCell>
        <mxCell id="I8f-Y6jS2_0YOeFHw668-2" value="OLim: double 100&lt;div&gt;canBeOverdrawn: boolean true&lt;/div&gt;" style="rounded=0;whiteSpace=wrap;html=1;align=center;" vertex="1" parent="I8f-Y6jS2_0YOeFHw668-1">
          <mxGeometry y="35" width="200" height="70" as="geometry" />
        </mxCell>
        <mxCell id="I8f-Y6jS2_0YOeFHw668-3" value="&lt;div&gt;getOverdraftLimit(): double&lt;/div&gt;" style="rounded=0;whiteSpace=wrap;html=1;" vertex="1" parent="I8f-Y6jS2_0YOeFHw668-1">
          <mxGeometry y="110" width="200" height="80" as="geometry" />
        </mxCell>
        <mxCell id="I8f-Y6jS2_0YOeFHw668-9" style="edgeStyle=orthogonalEdgeStyle;rounded=0;orthogonalLoop=1;jettySize=auto;html=1;exitX=0.5;exitY=0;exitDx=0;exitDy=0;entryX=0.5;entryY=1;entryDx=0;entryDy=0;" edge="1" parent="1" source="I8f-Y6jS2_0YOeFHw668-4" target="XmR2WIq8wX1BM2f5QS7f-1">
          <mxGeometry relative="1" as="geometry">
            <mxPoint x="400" y="440" as="targetPoint" />
          </mxGeometry>
        </mxCell>
        <mxCell id="I8f-Y6jS2_0YOeFHw668-4" value="Savings Account" style="swimlane;whiteSpace=wrap;html=1;" vertex="1" parent="1">
          <mxGeometry x="450" y="540" width="200" height="110" as="geometry" />
        </mxCell>
        <mxCell id="I8f-Y6jS2_0YOeFHw668-5" value="&lt;div&gt;canBeOverdrawn: boolean false&lt;/div&gt;" style="rounded=0;whiteSpace=wrap;html=1;align=center;" vertex="1" parent="I8f-Y6jS2_0YOeFHw668-4">
          <mxGeometry y="30" width="200" height="70" as="geometry" />
        </mxCell>
      </root>
    </mxGraphModel>
  </diagram>
</mxfile>
